# This file uses centimeters as units for non-parametric coordinates.

mtllib BACKGROUND.mtl
g default
v -1000.000000 400.000000 1000.000000
v 600.000000 400.000000 1000.000000
v -1000.000000 400.000000 -1000.000000
v 600.000000 400.000000 -1000.000000
vt 0.075000 0.925000
vt 0.075000 0.275000
vt 0.925000 0.275000
vt 0.925000 0.925000
vn 0.000000 1.000000 0.000000
vn 0.000000 1.000000 0.000000
vn 0.000000 1.000000 0.000000
vn 0.000000 1.000000 0.000000
s off
g pPlane1
usemtl BACKGROUND_ALBEDO_1SG
f 1/1/1 2/2/2 4/3/3 3/4/4
