# This file uses centimeters as units for non-parametric coordinates.

mtllib OCEAN .mtl
g default
v 0.000000 400.000000 1000.000000
v 1000.000000 400.000000 1000.000000
v 0.000000 400.000000 -1000.000000
v 1000.000000 400.000000 -1000.000000
vt 0.022561 0.968293
vt 0.022561 0.331707
vt 0.977439 0.331707
vt 0.977439 0.968293
vn 0.000000 1.000000 0.000000
vn 0.000000 1.000000 0.000000
vn 0.000000 1.000000 0.000000
vn 0.000000 1.000000 0.000000
s off
g pPlane1
usemtl initialShadingGroup
f 1/1/1 2/2/2 4/3/3 3/4/4
